<svg height='100px' width='100px'  fill="#000000" xmlns="http://www.w3.org/2000/svg" xmlns:xlink="http://www.w3.org/1999/xlink" version="1.1" x="0px" y="0px" viewBox="0 0 100 100" enable-background="new 0 0 100 100" xml:space="preserve"><g><path d="M49.8,76H22.3c-0.6,0-1.1,0.5-1.1,1.1s0.5,1.1,1.1,1.1h27.5c0.6,0,1.1-0.5,1.1-1.1S50.4,76,49.8,76z"></path><path d="M61.6,78.3c0.6,0,1.1-0.5,1.1-1.1S62.2,76,61.6,76h-6.8c-0.6,0-1.1,0.5-1.1,1.1s0.5,1.1,1.1,1.1H61.6z"></path><path d="M79.1,76H67.2c-0.6,0-1.1,0.5-1.1,1.1s0.5,1.1,1.1,1.1h11.9c0.6,0,1.1-0.5,1.1-1.1S79.7,76,79.1,76z"></path><path d="M47.4,82.5h-6.8c-0.6,0-1.1,0.5-1.1,1.1s0.5,1.1,1.1,1.1h6.8c0.6,0,1.1-0.5,1.1-1.1S48,82.5,47.4,82.5z"></path><path d="M64.9,82.5H53c-0.6,0-1.1,0.5-1.1,1.1s0.5,1.1,1.1,1.1h11.9c0.6,0,1.1-0.5,1.1-1.1S65.5,82.5,64.9,82.5z"></path><path d="M88,57.3c-0.3-0.6-0.9-0.9-1.6-0.9h-6v-6.4c0-0.6-0.5-1.1-1.1-1.1s-1.1,0.5-1.1,1.1v6.4h-5c-1,0-2.2,0.6-2.7,1.5l-1.1,1.7   c-0.1,0.2-0.6,0.4-0.8,0.4l-34.6,0v-6.9c0-1.3-1-2.3-2.3-2.3h-3V44c0-0.6-0.5-1.1-1.1-1.1s-1.1,0.5-1.1,1.1v6.9h-6.4   c-1.3,0-2.3,1-2.3,2.3l0,3.4h-4c-1.3,0-2.3,1-2.3,2.3v1.4c0,0.8,0.3,2,0.6,2.7l2.8,5.5c0.5,0.9,1.6,1.6,2.7,1.6h61.9   c1,0,2.2-0.6,2.7-1.5l5.8-9.5C88.2,58.5,88.3,57.9,88,57.3z M80.1,67.5c-0.1,0.2-0.5,0.4-0.8,0.4H17.5c-0.2,0-0.6-0.2-0.7-0.4   L14.1,62c-0.2-0.4-0.4-1.2-0.4-1.7l0-1.4h4c1.3,0,2.3-1,2.3-2.3l0-3.4l11.7,0v6.9c0,1.3,1,2.3,2.3,2.3h34.6c1,0,2.2-0.6,2.7-1.5   l1.1-1.7c0.1-0.2,0.6-0.4,0.8-0.4l12.4,0L80.1,67.5z"></path><path d="M34.7,48.3h31.8c1.4,0,2.6-1.2,2.6-2.6v-7.3c0-1.4-1.2-2.6-2.6-2.6h-1.7L53.6,24c1.3-0.8,2.2-2.3,2.2-3.9   c0-2.3-1.5-3.6-2.6-4.5c-0.9-0.8-1.4-1.2-1.4-1.9v-1.2H53c0.6,0,1.1-0.5,1.1-1.1V5.2C54.1,4.5,53.6,4,53,4s-1.1,0.5-1.1,1.1v5.1   h-2.5V5.2c0-0.6-0.5-1.1-1.1-1.1s-1.1,0.5-1.1,1.1v6.3c0,0.6,0.5,1.1,1.1,1.1h1.3v1.2c0,1.8,1.2,2.8,2.2,3.6   c1.1,0.9,1.8,1.6,1.8,2.8c0,1-0.6,1.9-1.5,2.2l-0.6-0.6c-0.4-0.5-1.2-0.5-1.6,0l-0.1,0.2c-0.5-0.4-0.8-1.1-0.8-1.8   c0-0.6-0.5-1.1-1.1-1.1s-1.1,0.5-1.1,1.1c0,1.4,0.6,2.6,1.5,3.4L36.5,35.8h-1.7c-1.4,0-2.6,1.2-2.6,2.6v7.3   C32.2,47.1,33.3,48.3,34.7,48.3z M50.2,24.6c0.3,0.1,0.7,0.1,1,0.1l10.5,11.1H39.6L50.2,24.6z M34.4,38.4c0-0.2,0.1-0.3,0.3-0.3   h31.8c0.2,0,0.3,0.1,0.3,0.3v7.3c0,0.2-0.1,0.3-0.3,0.3H34.7c-0.2,0-0.3-0.1-0.3-0.3V38.4z"></path></g></svg>